name p4_grf_mean_speed_1.8
datacolumns 13
datarows 68
range 0.0000000000 0.6700000000
endheader
time	grf_x_l_mean	grf_x_l_var	grf_y_l_mean	grf_y_l_var	grf_z_l_mean	grf_z_l_var	grf_x_r_mean	grf_x_r_var	grf_y_r_mean	grf_y_r_var	grf_z_r_mean	grf_z_r_var
0.0000000000	201.0463531166	1.0000000000	887.9093143382	1.0000000000	0.0000000000	0.0000000000	16.0147090494	1.0000000000	12.1337914528	1.0000000000	0.0000000000	0.0000000000
0.0100000000	218.9260247863	1.0000000000	871.8569398059	1.0000000000	0.0000000000	0.0000000000	19.8030284838	1.0000000000	62.3664647544	1.0000000000	0.0000000000	0.0000000000
0.0200000000	233.5158389662	1.0000000000	838.6249854522	1.0000000000	0.0000000000	0.0000000000	19.1217815922	1.0000000000	144.2691265811	1.0000000000	0.0000000000	0.0000000000
0.0300000000	243.0480314000	1.0000000000	787.1503950313	1.0000000000	0.0000000000	0.0000000000	8.7588649522	1.0000000000	258.8441939386	1.0000000000	0.0000000000	0.0000000000
0.0400000000	244.7977541969	1.0000000000	717.5527023276	1.0000000000	0.0000000000	0.0000000000	-17.7502055229	1.0000000000	398.2200725953	1.0000000000	0.0000000000	0.0000000000
0.0500000000	235.5115851611	1.0000000000	631.0001340011	1.0000000000	0.0000000000	0.0000000000	-61.0417477952	1.0000000000	548.4273331885	1.0000000000	0.0000000000	0.0000000000
0.0600000000	214.1071986347	1.0000000000	531.0192350376	1.0000000000	0.0000000000	0.0000000000	-111.7152449367	1.0000000000	694.7862040122	1.0000000000	0.0000000000	0.0000000000
0.0700000000	183.2394825546	1.0000000000	424.7684851842	1.0000000000	0.0000000000	0.0000000000	-158.7725898980	1.0000000000	822.8074662822	1.0000000000	0.0000000000	0.0000000000
0.0800000000	146.1748930257	1.0000000000	320.7397669737	1.0000000000	0.0000000000	0.0000000000	-196.8465728776	1.0000000000	921.1544191582	1.0000000000	0.0000000000	0.0000000000
0.0900000000	106.4644397526	1.0000000000	226.0315414195	1.0000000000	0.0000000000	0.0000000000	-223.8407970320	1.0000000000	987.3470471105	1.0000000000	0.0000000000	0.0000000000
0.1000000000	69.8369712446	1.0000000000	145.9852628512	1.0000000000	0.0000000000	0.0000000000	-238.3795958671	1.0000000000	1028.0926267875	1.0000000000	0.0000000000	0.0000000000
0.1100000000	41.0233171300	1.0000000000	84.2424484957	1.0000000000	0.0000000000	0.0000000000	-240.8308166582	1.0000000000	1053.5014296511	1.0000000000	0.0000000000	0.0000000000
0.1200000000	20.4531527195	1.0000000000	41.6628081923	1.0000000000	0.0000000000	0.0000000000	-234.3045276543	1.0000000000	1070.9488323552	1.0000000000	0.0000000000	0.0000000000
0.1300000000	6.4372457068	1.0000000000	15.4004024115	1.0000000000	0.0000000000	0.0000000000	-222.1619639239	1.0000000000	1082.4055918624	1.0000000000	0.0000000000	0.0000000000
0.1400000000	-1.7674653694	1.0000000000	0.9375541979	1.0000000000	0.0000000000	0.0000000000	-205.3822834202	1.0000000000	1086.5695166809	1.0000000000	0.0000000000	0.0000000000
0.1500000000	0.0000000000	1.0000000000	0.0000000000	1.0000000000	0.0000000000	0.0000000000	-184.9221437441	1.0000000000	1082.0041852895	1.0000000000	0.0000000000	0.0000000000
0.1600000000	0.0000000000	1.0000000000	0.0000000000	1.0000000000	0.0000000000	0.0000000000	-163.7355703726	1.0000000000	1067.0374291311	1.0000000000	0.0000000000	0.0000000000
0.1700000000	0.0000000000	1.0000000000	0.0000000000	1.0000000000	0.0000000000	0.0000000000	-143.5722864062	1.0000000000	1038.9624965339	1.0000000000	0.0000000000	0.0000000000
0.1800000000	0.0000000000	1.0000000000	0.0000000000	1.0000000000	0.0000000000	0.0000000000	-123.2245883266	1.0000000000	995.7357744810	1.0000000000	0.0000000000	0.0000000000
0.1900000000	-1.9198892322	1.0000000000	0.2049542769	1.0000000000	0.0000000000	0.0000000000	-102.6350767896	1.0000000000	937.9673773893	1.0000000000	0.0000000000	0.0000000000
0.2000000000	-1.0962503150	1.0000000000	1.1897532086	1.0000000000	0.0000000000	0.0000000000	-84.0423276597	1.0000000000	868.8364700670	1.0000000000	0.0000000000	0.0000000000
0.2100000000	-0.9721452742	1.0000000000	1.8047599861	1.0000000000	0.0000000000	0.0000000000	-68.0042566847	1.0000000000	792.3935636784	1.0000000000	0.0000000000	0.0000000000
0.2200000000	-0.1943278575	1.0000000000	1.8137401222	1.0000000000	0.0000000000	0.0000000000	-53.3849720282	1.0000000000	713.0040175287	1.0000000000	0.0000000000	0.0000000000
0.2300000000	0.5914240960	1.0000000000	1.2715879656	1.0000000000	0.0000000000	0.0000000000	-40.3004636707	1.0000000000	635.7304554725	1.0000000000	0.0000000000	0.0000000000
0.2400000000	0.3846360619	1.0000000000	0.7715675076	1.0000000000	0.0000000000	0.0000000000	-29.8209146134	1.0000000000	564.8976421982	1.0000000000	0.0000000000	0.0000000000
0.2500000000	0.1749402508	1.0000000000	0.5940848137	1.0000000000	0.0000000000	0.0000000000	-21.5545503481	1.0000000000	502.5745840420	1.0000000000	0.0000000000	0.0000000000
0.2600000000	0.6363058753	1.0000000000	0.4252056131	1.0000000000	0.0000000000	0.0000000000	-14.2198557596	1.0000000000	449.4699064572	1.0000000000	0.0000000000	0.0000000000
0.2700000000	0.8443148287	1.0000000000	0.0332177412	1.0000000000	0.0000000000	0.0000000000	-8.2455381259	1.0000000000	406.4931645486	1.0000000000	0.0000000000	0.0000000000
0.2800000000	0.0000000000	1.0000000000	0.0000000000	1.0000000000	0.0000000000	0.0000000000	-4.4769246808	1.0000000000	374.7764439978	1.0000000000	0.0000000000	0.0000000000
0.2900000000	0.0000000000	1.0000000000	0.0000000000	1.0000000000	0.0000000000	0.0000000000	-1.8957797644	1.0000000000	354.3717189345	1.0000000000	0.0000000000	0.0000000000
0.3000000000	0.8781085448	1.0000000000	0.2157207724	1.0000000000	0.0000000000	0.0000000000	0.5503861472	1.0000000000	343.6715157093	1.0000000000	0.0000000000	0.0000000000
0.3100000000	0.7103060172	1.0000000000	0.1408761619	1.0000000000	0.0000000000	0.0000000000	2.4216906886	1.0000000000	340.8313415930	1.0000000000	0.0000000000	0.0000000000
0.3200000000	0.0000000000	1.0000000000	0.0000000000	1.0000000000	0.0000000000	0.0000000000	3.4242578101	1.0000000000	345.2543268115	1.0000000000	0.0000000000	0.0000000000
0.3300000000	0.0000000000	1.0000000000	0.0000000000	1.0000000000	0.0000000000	0.0000000000	4.3694911033	1.0000000000	357.1283355901	1.0000000000	0.0000000000	0.0000000000
0.3400000000	0.6747132525	1.0000000000	0.0438246620	1.0000000000	0.0000000000	0.0000000000	5.9320472687	1.0000000000	376.0009798664	1.0000000000	0.0000000000	0.0000000000
0.3500000000	0.5626164405	1.0000000000	0.3012815773	1.0000000000	0.0000000000	0.0000000000	7.9392403912	1.0000000000	400.3200590978	1.0000000000	0.0000000000	0.0000000000
0.3600000000	0.0484516032	1.0000000000	0.4406199737	1.0000000000	0.0000000000	0.0000000000	10.4566648205	1.0000000000	428.6215503968	1.0000000000	0.0000000000	0.0000000000
0.3700000000	0.1675886893	1.0000000000	0.6280496024	1.0000000000	0.0000000000	0.0000000000	14.1631535416	1.0000000000	460.6033729263	1.0000000000	0.0000000000	0.0000000000
0.3800000000	0.4376513217	1.0000000000	0.9274191489	1.0000000000	0.0000000000	0.0000000000	19.3426067246	1.0000000000	496.4358641326	1.0000000000	0.0000000000	0.0000000000
0.3900000000	-0.0160561877	1.0000000000	1.1304121960	1.0000000000	0.0000000000	0.0000000000	25.9739596499	1.0000000000	535.6409154781	1.0000000000	0.0000000000	0.0000000000
0.4000000000	-0.6721677294	1.0000000000	0.9592253711	1.0000000000	0.0000000000	0.0000000000	34.5968076180	1.0000000000	577.1902230657	1.0000000000	0.0000000000	0.0000000000
0.4100000000	-0.8011965959	1.0000000000	0.1961064824	1.0000000000	0.0000000000	0.0000000000	45.6980202544	1.0000000000	620.1163932718	1.0000000000	0.0000000000	0.0000000000
0.4200000000	0.0000000000	1.0000000000	0.0000000000	1.0000000000	0.0000000000	0.0000000000	58.9344586244	1.0000000000	663.6629487588	1.0000000000	0.0000000000	0.0000000000
0.4300000000	0.0000000000	1.0000000000	0.0000000000	1.0000000000	0.0000000000	0.0000000000	73.9686338250	1.0000000000	707.0986988563	1.0000000000	0.0000000000	0.0000000000
0.4400000000	0.0000000000	1.0000000000	0.0000000000	1.0000000000	0.0000000000	0.0000000000	90.8792652059	1.0000000000	749.5990384361	1.0000000000	0.0000000000	0.0000000000
0.4500000000	0.0000000000	1.0000000000	0.0000000000	1.0000000000	0.0000000000	0.0000000000	109.3645241898	1.0000000000	790.0337696768	1.0000000000	0.0000000000	0.0000000000
0.4600000000	0.0000000000	1.0000000000	0.0000000000	1.0000000000	0.0000000000	0.0000000000	128.7335797355	1.0000000000	826.4191645545	1.0000000000	0.0000000000	0.0000000000
0.4700000000	0.0000000000	1.0000000000	0.0000000000	1.0000000000	0.0000000000	0.0000000000	148.7055319621	1.0000000000	855.9081006141	1.0000000000	0.0000000000	0.0000000000
0.4800000000	0.0000000000	1.0000000000	0.0000000000	1.0000000000	0.0000000000	0.0000000000	169.3066127197	1.0000000000	875.8283836132	1.0000000000	0.0000000000	0.0000000000
0.4900000000	0.0000000000	1.0000000000	0.0000000000	1.0000000000	0.0000000000	0.0000000000	189.9652903017	1.0000000000	884.3490841209	1.0000000000	0.0000000000	0.0000000000
0.5000000000	15.7085968838	1.0000000000	37.1633522551	1.0000000000	0.0000000000	0.0000000000	209.4369054381	1.0000000000	879.6898135567	1.0000000000	0.0000000000	0.0000000000
0.5100000000	16.2485610868	1.0000000000	102.7893876958	1.0000000000	0.0000000000	0.0000000000	226.4708414197	1.0000000000	859.2281410893	1.0000000000	0.0000000000	0.0000000000
0.5200000000	9.7009623054	1.0000000000	200.3907043574	1.0000000000	0.0000000000	0.0000000000	239.5195248024	1.0000000000	820.1710239133	1.0000000000	0.0000000000	0.0000000000
0.5300000000	-10.0862611816	1.0000000000	327.4297991157	1.0000000000	0.0000000000	0.0000000000	245.9859148915	1.0000000000	761.1806551639	1.0000000000	0.0000000000	0.0000000000
0.5400000000	-47.3525012858	1.0000000000	473.7904202517	1.0000000000	0.0000000000	0.0000000000	242.6566951768	1.0000000000	683.0571572016	1.0000000000	0.0000000000	0.0000000000
0.5500000000	-97.5712614622	1.0000000000	623.9797243237	1.0000000000	0.0000000000	0.0000000000	227.5274324112	1.0000000000	588.6641628918	1.0000000000	0.0000000000	0.0000000000
0.5600000000	-148.6065073326	1.0000000000	761.3338261831	1.0000000000	0.0000000000	0.0000000000	201.3621559427	1.0000000000	483.5098140153	1.0000000000	0.0000000000	0.0000000000
0.5700000000	-190.4475383724	1.0000000000	872.4831085510	1.0000000000	0.0000000000	0.0000000000	166.9199684869	1.0000000000	375.7352738480	1.0000000000	0.0000000000	0.0000000000
0.5800000000	-219.9644036081	1.0000000000	951.3728801392	1.0000000000	0.0000000000	0.0000000000	127.8383528648	1.0000000000	274.0553134884	1.0000000000	0.0000000000	0.0000000000
0.5900000000	-237.0509571756	1.0000000000	1000.7042652360	1.0000000000	0.0000000000	0.0000000000	89.3520665451	1.0000000000	185.3763759058	1.0000000000	0.0000000000	0.0000000000
0.6000000000	-241.9803795742	1.0000000000	1028.6198489909	1.0000000000	0.0000000000	0.0000000000	56.9130909964	1.0000000000	114.0039308766	1.0000000000	0.0000000000	0.0000000000
0.6100000000	-236.4943992405	1.0000000000	1043.3296986725	1.0000000000	0.0000000000	0.0000000000	32.5103206077	1.0000000000	61.6092509449	1.0000000000	0.0000000000	0.0000000000
0.6200000000	-223.8469111306	1.0000000000	1050.1702283779	1.0000000000	0.0000000000	0.0000000000	15.2419199604	1.0000000000	26.8581734793	1.0000000000	0.0000000000	0.0000000000
0.6300000000	-206.5420252367	1.0000000000	1051.7197800559	1.0000000000	0.0000000000	0.0000000000	4.1310667998	1.0000000000	6.1024657821	1.0000000000	0.0000000000	0.0000000000
0.6400000000	-185.8746096448	1.0000000000	1048.3085104219	1.0000000000	0.0000000000	0.0000000000	0.0000000000	1.0000000000	0.0000000000	1.0000000000	0.0000000000	0.0000000000
0.6500000000	-163.6657246766	1.0000000000	1038.0697972708	1.0000000000	0.0000000000	0.0000000000	0.0000000000	1.0000000000	0.0000000000	1.0000000000	0.0000000000	0.0000000000
0.6600000000	-141.8132729427	1.0000000000	1017.8748166602	1.0000000000	0.0000000000	0.0000000000	0.0000000000	1.0000000000	0.0000000000	1.0000000000	0.0000000000	0.0000000000
0.6700000000	-120.7175520176	1.0000000000	985.3680824556	1.0000000000	0.0000000000	0.0000000000	0.0000000000	1.0000000000	0.0000000000	1.0000000000	0.0000000000	0.0000000000
